<?xml version="1.0" encoding="UTF-8" standalone="no"?>
<!DOCTYPE svg PUBLIC "-//W3C//DTD SVG 1.1//EN"
 "http://www.w3.org/Graphics/SVG/1.1/DTD/svg11.dtd">
<!-- Generated by graphviz version 9.0.0 (20230911.1827)
 -->
<!-- Pages: 1 -->
<svg width="4392pt" height="554pt"
 viewBox="0.00 0.00 4392.25 554.00" xmlns="http://www.w3.org/2000/svg" xmlns:xlink="http://www.w3.org/1999/xlink">
<g id="graph0" class="graph" transform="scale(1 1) rotate(0) translate(4 550)">
<polygon fill="white" stroke="none" points="-4,4 -4,-550 4388.25,-550 4388.25,4 -4,4"/>
<!-- 5 -->
<g id="node1" class="node">
<title>5</title>
<polygon fill="#ff0000" stroke="#ff0000" points="1008.25,-154 833.25,-154 833.25,-98 1008.25,-98 1008.25,-154"/>
<text text-anchor="middle" x="920.75" y="-140.5" font-family="Arial" font-size="10.00" fill="#ffffff">TCaseInsensitiveString::size() const</text>
<text text-anchor="middle" x="920.75" y="-128.5" font-family="Arial" font-size="10.00" fill="#ffffff">100.00%</text>
<text text-anchor="middle" x="920.75" y="-116.5" font-family="Arial" font-size="10.00" fill="#ffffff">(100.00%)</text>
<text text-anchor="middle" x="920.75" y="-104.5" font-family="Arial" font-size="10.00" fill="#ffffff">521×</text>
</g>
<!-- 6 -->
<g id="node2" class="node">
<title>6</title>
<polygon fill="#ff0000" stroke="#ff0000" points="919.25,-252 714.25,-252 714.25,-196 919.25,-196 919.25,-252"/>
<text text-anchor="middle" x="816.75" y="-238.5" font-family="Arial" font-size="10.00" fill="#ffffff">GetBitSize(TCaseInsensitiveString const&amp;)</text>
<text text-anchor="middle" x="816.75" y="-226.5" font-family="Arial" font-size="10.00" fill="#ffffff">100.00%</text>
<text text-anchor="middle" x="816.75" y="-214.5" font-family="Arial" font-size="10.00" fill="#ffffff">(100.00%)</text>
<text text-anchor="middle" x="816.75" y="-202.5" font-family="Arial" font-size="10.00" fill="#ffffff">507×</text>
</g>
<!-- 6&#45;&gt;5 -->
<g id="edge1" class="edge">
<title>6&#45;&gt;5</title>
<path fill="none" stroke="#ff0000" stroke-width="4" d="M846.27,-195.75C856.59,-186.22 868.38,-175.35 879.48,-165.1"/>
<polygon fill="#ff0000" stroke="#ff0000" stroke-width="4" points="881.73,-167.78 886.7,-158.43 876.98,-162.64 881.73,-167.78"/>
<text text-anchor="middle" x="899.88" y="-177.5" font-family="Arial" font-size="10.00" fill="#ff0000">100.00%</text>
<text text-anchor="middle" x="899.88" y="-165.5" font-family="Arial" font-size="10.00" fill="#ff0000">507×</text>
</g>
<!-- 7 -->
<g id="node3" class="node">
<title>7</title>
<polygon fill="#ff0000" stroke="#ff0000" points="1225.38,-56 1048.12,-56 1048.12,0 1225.38,0 1225.38,-56"/>
<text text-anchor="middle" x="1136.75" y="-42.5" font-family="Arial" font-size="10.00" fill="#ffffff">TCaseInsensitiveString::CStr() const</text>
<text text-anchor="middle" x="1136.75" y="-30.5" font-family="Arial" font-size="10.00" fill="#ffffff">100.00%</text>
<text text-anchor="middle" x="1136.75" y="-18.5" font-family="Arial" font-size="10.00" fill="#ffffff">(100.00%)</text>
<text text-anchor="middle" x="1136.75" y="-6.5" font-family="Arial" font-size="10.00" fill="#ffffff">343×</text>
</g>
<!-- 8 -->
<g id="node4" class="node">
<title>8</title>
<polygon fill="#ff0000" stroke="#ff0000" points="1255.75,-154 1017.75,-154 1017.75,-98 1255.75,-98 1255.75,-154"/>
<text text-anchor="middle" x="1136.75" y="-140.5" font-family="Arial" font-size="10.00" fill="#ffffff">GetBitByIndex(TCaseInsensitiveString const&amp;, int)</text>
<text text-anchor="middle" x="1136.75" y="-128.5" font-family="Arial" font-size="10.00" fill="#ffffff">100.00%</text>
<text text-anchor="middle" x="1136.75" y="-116.5" font-family="Arial" font-size="10.00" fill="#ffffff">(100.00%)</text>
<text text-anchor="middle" x="1136.75" y="-104.5" font-family="Arial" font-size="10.00" fill="#ffffff">337×</text>
</g>
<!-- 8&#45;&gt;7 -->
<g id="edge2" class="edge">
<title>8&#45;&gt;7</title>
<path fill="none" stroke="#ff0000" stroke-width="4" d="M1136.75,-97.75C1136.75,-89.74 1136.75,-80.78 1136.75,-72.04"/>
<polygon fill="#ff0000" stroke="#ff0000" stroke-width="4" points="1140.25,-72.38 1136.75,-62.38 1133.25,-72.38 1140.25,-72.38"/>
<text text-anchor="middle" x="1155.88" y="-79.5" font-family="Arial" font-size="10.00" fill="#ff0000">100.00%</text>
<text text-anchor="middle" x="1155.88" y="-67.5" font-family="Arial" font-size="10.00" fill="#ff0000">337×</text>
</g>
<!-- 9 -->
<g id="node5" class="node">
<title>9</title>
<polygon fill="#ff0000" stroke="#ff0000" points="3968.5,-350 3687,-350 3687,-294 3968.5,-294 3968.5,-350"/>
<text text-anchor="middle" x="3827.75" y="-336.5" font-family="Arial" font-size="10.00" fill="#ffffff">TCaseInsensitiveString::TCaseInsensitiveString(char const*)</text>
<text text-anchor="middle" x="3827.75" y="-324.5" font-family="Arial" font-size="10.00" fill="#ffffff">100.00%</text>
<text text-anchor="middle" x="3827.75" y="-312.5" font-family="Arial" font-size="10.00" fill="#ffffff">(100.00%)</text>
<text text-anchor="middle" x="3827.75" y="-300.5" font-family="Arial" font-size="10.00" fill="#ffffff">25×</text>
</g>
<!-- 10 -->
<g id="node6" class="node">
<title>10</title>
<polygon fill="#ff0000" stroke="#ff0000" points="3767.75,-546 3421.75,-546 3421.75,-490 3767.75,-490 3767.75,-546"/>
<text text-anchor="middle" x="3594.75" y="-532.5" font-family="Arial" font-size="10.00" fill="#ffffff">operator==(TCaseInsensitiveString const&amp;, TCaseInsensitiveString const&amp;)</text>
<text text-anchor="middle" x="3594.75" y="-520.5" font-family="Arial" font-size="10.00" fill="#ffffff">100.00%</text>
<text text-anchor="middle" x="3594.75" y="-508.5" font-family="Arial" font-size="10.00" fill="#ffffff">(100.00%)</text>
<text text-anchor="middle" x="3594.75" y="-496.5" font-family="Arial" font-size="10.00" fill="#ffffff">21×</text>
</g>
<!-- 11 -->
<g id="node7" class="node">
<title>11</title>
<polygon fill="#ff0000" stroke="#ff0000" points="3974.88,-546 3776.62,-546 3776.62,-490 3974.88,-490 3974.88,-546"/>
<text text-anchor="middle" x="3875.75" y="-532.5" font-family="Arial" font-size="10.00" fill="#ffffff">TCaseInsensitiveString::Scan(_IO_FILE*)</text>
<text text-anchor="middle" x="3875.75" y="-520.5" font-family="Arial" font-size="10.00" fill="#ffffff">100.00%</text>
<text text-anchor="middle" x="3875.75" y="-508.5" font-family="Arial" font-size="10.00" fill="#ffffff">(100.00%)</text>
<text text-anchor="middle" x="3875.75" y="-496.5" font-family="Arial" font-size="10.00" fill="#ffffff">19×</text>
</g>
<!-- 12 -->
<g id="node8" class="node">
<title>12</title>
<polygon fill="#ff0000" stroke="#ff0000" points="2059.75,-154 1827.75,-154 1827.75,-98 2059.75,-98 2059.75,-154"/>
<text text-anchor="middle" x="1943.75" y="-140.5" font-family="Arial" font-size="10.00" fill="#ffffff">TCaseInsensitiveString::TCaseInsensitiveString()</text>
<text text-anchor="middle" x="1943.75" y="-128.5" font-family="Arial" font-size="10.00" fill="#ffffff">100.00%</text>
<text text-anchor="middle" x="1943.75" y="-116.5" font-family="Arial" font-size="10.00" fill="#ffffff">(100.00%)</text>
<text text-anchor="middle" x="1943.75" y="-104.5" font-family="Arial" font-size="10.00" fill="#ffffff">14×</text>
</g>
<!-- 13 -->
<g id="node9" class="node">
<title>13</title>
<polygon fill="#ff0000" stroke="#ff0000" points="1618.75,-252 1302.75,-252 1302.75,-196 1618.75,-196 1618.75,-252"/>
<text text-anchor="middle" x="1460.75" y="-238.5" font-family="Arial" font-size="10.00" fill="#ffffff">TPatriciaTrie::FindPreviousNode(TCaseInsensitiveString const&amp;, int)</text>
<text text-anchor="middle" x="1460.75" y="-226.5" font-family="Arial" font-size="10.00" fill="#ffffff">100.00%</text>
<text text-anchor="middle" x="1460.75" y="-214.5" font-family="Arial" font-size="10.00" fill="#ffffff">(100.00%)</text>
<text text-anchor="middle" x="1460.75" y="-202.5" font-family="Arial" font-size="10.00" fill="#ffffff">11×</text>
</g>
<!-- 13&#45;&gt;8 -->
<g id="edge3" class="edge">
<title>13&#45;&gt;8</title>
<path fill="none" stroke="#ff0000" stroke-width="4" d="M1368.34,-195.62C1329.78,-184.19 1284.73,-170.84 1244.66,-158.97"/>
<polygon fill="#ff0000" stroke="#ff0000" stroke-width="4" points="1245.67,-155.62 1235.09,-156.14 1243.68,-162.33 1245.67,-155.62"/>
<text text-anchor="middle" x="1355.88" y="-177.5" font-family="Arial" font-size="10.00" fill="#ff0000">100.00%</text>
<text text-anchor="middle" x="1355.88" y="-165.5" font-family="Arial" font-size="10.00" fill="#ff0000">5×</text>
</g>
<!-- 14 -->
<g id="node10" class="node">
<title>14</title>
<polygon fill="#ff0000" stroke="#ff0000" points="1648.75,-154 1272.75,-154 1272.75,-98 1648.75,-98 1648.75,-154"/>
<text text-anchor="middle" x="1460.75" y="-140.5" font-family="Arial" font-size="10.00" fill="#ffffff">TPair&lt;TPatriciaTrie::TNode*, int&gt;::TPair(TPatriciaTrie::TNode* const&amp;, int const&amp;)</text>
<text text-anchor="middle" x="1460.75" y="-128.5" font-family="Arial" font-size="10.00" fill="#ffffff">100.00%</text>
<text text-anchor="middle" x="1460.75" y="-116.5" font-family="Arial" font-size="10.00" fill="#ffffff">(100.00%)</text>
<text text-anchor="middle" x="1460.75" y="-104.5" font-family="Arial" font-size="10.00" fill="#ffffff">11×</text>
</g>
<!-- 13&#45;&gt;14 -->
<g id="edge4" class="edge">
<title>13&#45;&gt;14</title>
<path fill="none" stroke="#ff0000" stroke-width="4" d="M1460.75,-195.75C1460.75,-187.74 1460.75,-178.78 1460.75,-170.04"/>
<polygon fill="#ff0000" stroke="#ff0000" stroke-width="4" points="1464.25,-170.38 1460.75,-160.38 1457.25,-170.38 1464.25,-170.38"/>
<text text-anchor="middle" x="1479.88" y="-177.5" font-family="Arial" font-size="10.00" fill="#ff0000">100.00%</text>
<text text-anchor="middle" x="1479.88" y="-165.5" font-family="Arial" font-size="10.00" fill="#ff0000">11×</text>
</g>
<!-- 15 -->
<g id="node11" class="node">
<title>15</title>
<polygon fill="#ff0000" stroke="#ff0000" points="1599.62,-350 1321.88,-350 1321.88,-294 1599.62,-294 1599.62,-350"/>
<text text-anchor="middle" x="1460.75" y="-336.5" font-family="Arial" font-size="10.00" fill="#ffffff">TPatriciaTrie::FindNode(TCaseInsensitiveString const&amp;, int)</text>
<text text-anchor="middle" x="1460.75" y="-324.5" font-family="Arial" font-size="10.00" fill="#ffffff">100.00%</text>
<text text-anchor="middle" x="1460.75" y="-312.5" font-family="Arial" font-size="10.00" fill="#ffffff">(100.00%)</text>
<text text-anchor="middle" x="1460.75" y="-300.5" font-family="Arial" font-size="10.00" fill="#ffffff">10×</text>
</g>
<!-- 15&#45;&gt;13 -->
<g id="edge5" class="edge">
<title>15&#45;&gt;13</title>
<path fill="none" stroke="#ff0000" stroke-width="4" d="M1460.75,-293.75C1460.75,-285.74 1460.75,-276.78 1460.75,-268.04"/>
<polygon fill="#ff0000" stroke="#ff0000" stroke-width="4" points="1464.25,-268.38 1460.75,-258.38 1457.25,-268.38 1464.25,-268.38"/>
<text text-anchor="middle" x="1479.88" y="-275.5" font-family="Arial" font-size="10.00" fill="#ff0000">100.00%</text>
<text text-anchor="middle" x="1479.88" y="-263.5" font-family="Arial" font-size="10.00" fill="#ff0000">10×</text>
</g>
<!-- 16 -->
<g id="node12" class="node">
<title>16</title>
<polygon fill="#ff0000" stroke="#ff0000" points="1313.12,-350 942.38,-350 942.38,-294 1313.12,-294 1313.12,-350"/>
<text text-anchor="middle" x="1127.75" y="-336.5" font-family="Arial" font-size="10.00" fill="#ffffff">GetBitDifference(TCaseInsensitiveString const&amp;, TCaseInsensitiveString const&amp;)</text>
<text text-anchor="middle" x="1127.75" y="-324.5" font-family="Arial" font-size="10.00" fill="#ffffff">100.00%</text>
<text text-anchor="middle" x="1127.75" y="-312.5" font-family="Arial" font-size="10.00" fill="#ffffff">(100.00%)</text>
<text text-anchor="middle" x="1127.75" y="-300.5" font-family="Arial" font-size="10.00" fill="#ffffff">6×</text>
</g>
<!-- 16&#45;&gt;5 -->
<g id="edge6" class="edge">
<title>16&#45;&gt;5</title>
<path fill="none" stroke="#ff0000" stroke-width="4" d="M976.74,-293.6C970.79,-290.95 965.98,-288.09 962.75,-285 946.3,-269.28 933.99,-211.28 927.07,-170.13"/>
<polygon fill="#ff0000" stroke="#ff0000" stroke-width="4" points="930.57,-169.8 925.53,-160.48 923.65,-170.91 930.57,-169.8"/>
<text text-anchor="middle" x="963.88" y="-226.5" font-family="Arial" font-size="10.00" fill="#ff0000">100.00%</text>
<text text-anchor="middle" x="963.88" y="-214.5" font-family="Arial" font-size="10.00" fill="#ff0000">12×</text>
</g>
<!-- 16&#45;&gt;6 -->
<g id="edge7" class="edge">
<title>16&#45;&gt;6</title>
<path fill="none" stroke="#ff0000" stroke-width="4" d="M942.15,-301.96C925.02,-297.42 908.22,-291.85 892.5,-285 879.68,-279.41 867.17,-271.1 856.14,-262.43"/>
<polygon fill="#ff0000" stroke="#ff0000" stroke-width="4" points="858.49,-259.84 848.57,-256.11 854,-265.21 858.49,-259.84"/>
<text text-anchor="middle" x="910.88" y="-275.5" font-family="Arial" font-size="10.00" fill="#ff0000">100.00%</text>
<text text-anchor="middle" x="910.88" y="-263.5" font-family="Arial" font-size="10.00" fill="#ff0000">507×</text>
</g>
<!-- 16&#45;&gt;8 -->
<g id="edge8" class="edge">
<title>16&#45;&gt;8</title>
<path fill="none" stroke="#ff0000" stroke-width="4" d="M1129.02,-293.62C1130.51,-261.48 1133,-207.8 1134.75,-170.07"/>
<polygon fill="#ff0000" stroke="#ff0000" stroke-width="4" points="1138.24,-170.44 1135.21,-160.29 1131.25,-170.12 1138.24,-170.44"/>
<text text-anchor="middle" x="1151.88" y="-226.5" font-family="Arial" font-size="10.00" fill="#ff0000">100.00%</text>
<text text-anchor="middle" x="1151.88" y="-214.5" font-family="Arial" font-size="10.00" fill="#ff0000">330×</text>
</g>
<!-- 17 -->
<g id="node13" class="node">
<title>17</title>
<polygon fill="#ff0000" stroke="#ff0000" points="3520.75,-350 3030.75,-350 3030.75,-294 3520.75,-294 3520.75,-350"/>
<text text-anchor="middle" x="3275.75" y="-336.5" font-family="Arial" font-size="10.00" fill="#ffffff">TPair&lt;TCaseInsensitiveString, unsigned long&gt;::TPair(TCaseInsensitiveString const&amp;, unsigned long const&amp;)</text>
<text text-anchor="middle" x="3275.75" y="-324.5" font-family="Arial" font-size="10.00" fill="#ffffff">100.00%</text>
<text text-anchor="middle" x="3275.75" y="-312.5" font-family="Arial" font-size="10.00" fill="#ffffff">(100.00%)</text>
<text text-anchor="middle" x="3275.75" y="-300.5" font-family="Arial" font-size="10.00" fill="#ffffff">6×</text>
</g>
<!-- 18 -->
<g id="node14" class="node">
<title>18</title>
<polygon fill="#ff0000" stroke="#ff0000" points="1136.38,-448 791.12,-448 791.12,-392 1136.38,-392 1136.38,-448"/>
<text text-anchor="middle" x="963.75" y="-434.5" font-family="Arial" font-size="10.00" fill="#ffffff">TPatriciaTrie::Insert(TPair&lt;TCaseInsensitiveString, unsigned long&gt; const&amp;)</text>
<text text-anchor="middle" x="963.75" y="-422.5" font-family="Arial" font-size="10.00" fill="#ffffff">100.00%</text>
<text text-anchor="middle" x="963.75" y="-410.5" font-family="Arial" font-size="10.00" fill="#ffffff">(100.00%)</text>
<text text-anchor="middle" x="963.75" y="-398.5" font-family="Arial" font-size="10.00" fill="#ffffff">4×</text>
</g>
<!-- 18&#45;&gt;8 -->
<g id="edge9" class="edge">
<title>18&#45;&gt;8</title>
<path fill="none" stroke="#ff0000" stroke-width="4" d="M948.49,-391.53C936.15,-365.41 923.04,-325.54 937.75,-294 941.9,-285.09 1032.67,-210.89 1090.17,-164.44"/>
<polygon fill="#ff0000" stroke="#ff0000" stroke-width="4" points="1092.29,-167.22 1097.88,-158.22 1087.9,-161.77 1092.29,-167.22"/>
<text text-anchor="middle" x="990.88" y="-275.5" font-family="Arial" font-size="10.00" fill="#ff0000">100.00%</text>
<text text-anchor="middle" x="990.88" y="-263.5" font-family="Arial" font-size="10.00" fill="#ff0000">2×</text>
</g>
<!-- 18&#45;&gt;15 -->
<g id="edge10" class="edge">
<title>18&#45;&gt;15</title>
<path fill="none" stroke="#ff0000" stroke-width="4" d="M1136.74,-402.37C1185.08,-396.48 1227.15,-389.66 1236.75,-383 1246.67,-376.11 1239.58,-365.89 1249.5,-359 1259.17,-352.29 1285.43,-352.01 1305.61,-350.86"/>
<polygon fill="#ff0000" stroke="#ff0000" stroke-width="4" points="1305.84,-354.35 1315.48,-349.95 1305.2,-347.38 1305.84,-354.35"/>
<text text-anchor="middle" x="1267.88" y="-373.5" font-family="Arial" font-size="10.00" fill="#ff0000">100.00%</text>
<text text-anchor="middle" x="1267.88" y="-361.5" font-family="Arial" font-size="10.00" fill="#ff0000">5×</text>
</g>
<!-- 18&#45;&gt;16 -->
<g id="edge11" class="edge">
<title>18&#45;&gt;16</title>
<path fill="none" stroke="#ff0000" stroke-width="4" d="M1010.31,-391.75C1027.98,-381.4 1048.36,-369.47 1067.14,-358.48"/>
<polygon fill="#ff0000" stroke="#ff0000" stroke-width="4" points="1068.71,-361.62 1075.57,-353.55 1065.17,-355.58 1068.71,-361.62"/>
<text text-anchor="middle" x="1083.88" y="-373.5" font-family="Arial" font-size="10.00" fill="#ff0000">100.00%</text>
<text text-anchor="middle" x="1083.88" y="-361.5" font-family="Arial" font-size="10.00" fill="#ff0000">3×</text>
</g>
<!-- 19 -->
<g id="node15" class="node">
<title>19</title>
<polygon fill="#ff0000" stroke="#ff0000" points="676.25,-350 291.25,-350 291.25,-294 676.25,-294 676.25,-350"/>
<text text-anchor="middle" x="483.75" y="-336.5" font-family="Arial" font-size="10.00" fill="#ffffff">TPatriciaTrie::TNode::TNode(TPair&lt;TCaseInsensitiveString, unsigned long&gt; const&amp;)</text>
<text text-anchor="middle" x="483.75" y="-324.5" font-family="Arial" font-size="10.00" fill="#ffffff">100.00%</text>
<text text-anchor="middle" x="483.75" y="-312.5" font-family="Arial" font-size="10.00" fill="#ffffff">(100.00%)</text>
<text text-anchor="middle" x="483.75" y="-300.5" font-family="Arial" font-size="10.00" fill="#ffffff">3×</text>
</g>
<!-- 18&#45;&gt;19 -->
<g id="edge12" class="edge">
<title>18&#45;&gt;19</title>
<path fill="none" stroke="#ff0000" stroke-width="4" d="M826.52,-391.55C767.26,-379.7 697.7,-365.79 636.78,-353.61"/>
<polygon fill="#ff0000" stroke="#ff0000" stroke-width="4" points="637.51,-350.18 627.02,-351.65 636.13,-357.05 637.51,-350.18"/>
<text text-anchor="middle" x="799.88" y="-373.5" font-family="Arial" font-size="10.00" fill="#ff0000">100.00%</text>
<text text-anchor="middle" x="799.88" y="-361.5" font-family="Arial" font-size="10.00" fill="#ff0000">3×</text>
</g>
<!-- 20 -->
<g id="node16" class="node">
<title>20</title>
<polygon fill="#ff0000" stroke="#ff0000" points="491.5,-252 0,-252 0,-196 491.5,-196 491.5,-252"/>
<text text-anchor="middle" x="245.75" y="-238.5" font-family="Arial" font-size="10.00" fill="#ffffff">TPair&lt;TCaseInsensitiveString, unsigned long&gt;::TPair(TPair&lt;TCaseInsensitiveString, unsigned long&gt; const&amp;)</text>
<text text-anchor="middle" x="245.75" y="-226.5" font-family="Arial" font-size="10.00" fill="#ffffff">100.00%</text>
<text text-anchor="middle" x="245.75" y="-214.5" font-family="Arial" font-size="10.00" fill="#ffffff">(100.00%)</text>
<text text-anchor="middle" x="245.75" y="-202.5" font-family="Arial" font-size="10.00" fill="#ffffff">3×</text>
</g>
<!-- 19&#45;&gt;20 -->
<g id="edge13" class="edge">
<title>19&#45;&gt;20</title>
<path fill="none" stroke="#ff0000" stroke-width="4" d="M415.87,-293.62C388.61,-282.62 356.93,-269.84 328.35,-258.32"/>
<polygon fill="#ff0000" stroke="#ff0000" stroke-width="4" points="329.92,-255.18 319.34,-254.68 327.3,-261.67 329.92,-255.18"/>
<text text-anchor="middle" x="412.88" y="-275.5" font-family="Arial" font-size="10.00" fill="#ff0000">100.00%</text>
<text text-anchor="middle" x="412.88" y="-263.5" font-family="Arial" font-size="10.00" fill="#ff0000">3×</text>
</g>
<!-- 21 -->
<g id="node17" class="node">
<title>21</title>
<polygon fill="#ff0000" stroke="#ff0000" points="3021.38,-350 2532.12,-350 2532.12,-294 3021.38,-294 3021.38,-350"/>
<text text-anchor="middle" x="2776.75" y="-336.5" font-family="Arial" font-size="10.00" fill="#ffffff">TPair&lt;TCaseInsensitiveString, unsigned long&gt;::operator=(TPair&lt;TCaseInsensitiveString, unsigned long&gt;&amp;&amp;)</text>
<text text-anchor="middle" x="2776.75" y="-324.5" font-family="Arial" font-size="10.00" fill="#ffffff">100.00%</text>
<text text-anchor="middle" x="2776.75" y="-312.5" font-family="Arial" font-size="10.00" fill="#ffffff">(100.00%)</text>
<text text-anchor="middle" x="2776.75" y="-300.5" font-family="Arial" font-size="10.00" fill="#ffffff">3×</text>
</g>
<!-- 22 -->
<g id="node18" class="node">
<title>22</title>
<polygon fill="#ff0000" stroke="#ff0000" points="3106,-252 2551.5,-252 2551.5,-196 3106,-196 3106,-252"/>
<text text-anchor="middle" x="2828.75" y="-238.5" font-family="Arial" font-size="10.00" fill="#ffffff">std::remove_reference&lt;TCaseInsensitiveString&amp;&gt;::type&amp;&amp; std::move&lt;TCaseInsensitiveString&amp;&gt;(TCaseInsensitiveString&amp;)</text>
<text text-anchor="middle" x="2828.75" y="-226.5" font-family="Arial" font-size="10.00" fill="#ffffff">100.00%</text>
<text text-anchor="middle" x="2828.75" y="-214.5" font-family="Arial" font-size="10.00" fill="#ffffff">(100.00%)</text>
<text text-anchor="middle" x="2828.75" y="-202.5" font-family="Arial" font-size="10.00" fill="#ffffff">3×</text>
</g>
<!-- 21&#45;&gt;22 -->
<g id="edge14" class="edge">
<title>21&#45;&gt;22</title>
<path fill="none" stroke="#ff0000" stroke-width="4" d="M2791.51,-293.75C2796.12,-285.23 2801.32,-275.64 2806.33,-266.39"/>
<polygon fill="#ff0000" stroke="#ff0000" stroke-width="4" points="2809.38,-268.1 2811.07,-257.64 2803.23,-264.77 2809.38,-268.1"/>
<text text-anchor="middle" x="2827.88" y="-275.5" font-family="Arial" font-size="10.00" fill="#ff0000">100.00%</text>
<text text-anchor="middle" x="2827.88" y="-263.5" font-family="Arial" font-size="10.00" fill="#ff0000">3×</text>
</g>
<!-- 23 -->
<g id="node19" class="node">
<title>23</title>
<polygon fill="#ff0000" stroke="#ff0000" points="2542,-252 2113.5,-252 2113.5,-196 2542,-196 2542,-252"/>
<text text-anchor="middle" x="2327.75" y="-238.5" font-family="Arial" font-size="10.00" fill="#ffffff">std::remove_reference&lt;unsigned long&amp;&gt;::type&amp;&amp; std::move&lt;unsigned long&amp;&gt;(unsigned long&amp;)</text>
<text text-anchor="middle" x="2327.75" y="-226.5" font-family="Arial" font-size="10.00" fill="#ffffff">100.00%</text>
<text text-anchor="middle" x="2327.75" y="-214.5" font-family="Arial" font-size="10.00" fill="#ffffff">(100.00%)</text>
<text text-anchor="middle" x="2327.75" y="-202.5" font-family="Arial" font-size="10.00" fill="#ffffff">3×</text>
</g>
<!-- 21&#45;&gt;23 -->
<g id="edge15" class="edge">
<title>21&#45;&gt;23</title>
<path fill="none" stroke="#ff0000" stroke-width="4" d="M2648.39,-293.55C2593.19,-281.75 2528.43,-267.91 2471.62,-255.76"/>
<polygon fill="#ff0000" stroke="#ff0000" stroke-width="4" points="2472.64,-252.4 2462.13,-253.73 2471.18,-259.25 2472.64,-252.4"/>
<text text-anchor="middle" x="2623.88" y="-275.5" font-family="Arial" font-size="10.00" fill="#ff0000">100.00%</text>
<text text-anchor="middle" x="2623.88" y="-263.5" font-family="Arial" font-size="10.00" fill="#ff0000">3×</text>
</g>
<!-- 24 -->
<g id="node20" class="node">
<title>24</title>
<polygon fill="#ff0000" stroke="#ff0000" points="3206.25,-448 2977.25,-448 2977.25,-392 3206.25,-392 3206.25,-448"/>
<text text-anchor="middle" x="3091.75" y="-434.5" font-family="Arial" font-size="10.00" fill="#ffffff">TPatriciaTrie::DestroyTrie(TPatriciaTrie::TNode*)</text>
<text text-anchor="middle" x="3091.75" y="-422.5" font-family="Arial" font-size="10.00" fill="#ffffff">100.00%</text>
<text text-anchor="middle" x="3091.75" y="-410.5" font-family="Arial" font-size="10.00" fill="#ffffff">(100.00%)</text>
<text text-anchor="middle" x="3091.75" y="-398.5" font-family="Arial" font-size="10.00" fill="#ffffff">4×</text>
</g>
<!-- 24&#45;&gt;24 -->
<g id="edge16" class="edge">
<title>24&#45;&gt;24</title>
<path fill="none" stroke="#ff0000" stroke-width="4" d="M3206.75,-425.78C3206.92,-425.73 3207.08,-425.68 3207.24,-425.64"/>
<polygon fill="#ff0000" stroke="#ff0000" stroke-width="4" points="3210.94,-430.11 3207.01,-420.27 3203.95,-430.42 3210.94,-430.11"/>
<text text-anchor="middle" x="3220.88" y="-416.5" font-family="Arial" font-size="10.00" fill="#ff0000">2×</text>
</g>
<!-- 25 -->
<g id="node21" class="node">
<title>25</title>
<polygon fill="#ff0000" stroke="#ff0000" points="1452.75,-448 1214.75,-448 1214.75,-392 1452.75,-392 1452.75,-448"/>
<text text-anchor="middle" x="1333.75" y="-434.5" font-family="Arial" font-size="10.00" fill="#ffffff">TPatriciaTrie::Find(TCaseInsensitiveString const&amp;)</text>
<text text-anchor="middle" x="1333.75" y="-422.5" font-family="Arial" font-size="10.00" fill="#ffffff">100.00%</text>
<text text-anchor="middle" x="1333.75" y="-410.5" font-family="Arial" font-size="10.00" fill="#ffffff">(100.00%)</text>
<text text-anchor="middle" x="1333.75" y="-398.5" font-family="Arial" font-size="10.00" fill="#ffffff">2×</text>
</g>
<!-- 25&#45;&gt;15 -->
<g id="edge17" class="edge">
<title>25&#45;&gt;15</title>
<path fill="none" stroke="#ff0000" stroke-width="4" d="M1369.8,-391.75C1382.94,-381.82 1398.02,-370.42 1412.07,-359.79"/>
<polygon fill="#ff0000" stroke="#ff0000" stroke-width="4" points="1413.91,-362.79 1419.78,-353.97 1409.69,-357.21 1413.91,-362.79"/>
<text text-anchor="middle" x="1430.88" y="-373.5" font-family="Arial" font-size="10.00" fill="#ff0000">100.00%</text>
<text text-anchor="middle" x="1430.88" y="-361.5" font-family="Arial" font-size="10.00" fill="#ff0000">2×</text>
</g>
<!-- 25&#45;&gt;16 -->
<g id="edge18" class="edge">
<title>25&#45;&gt;16</title>
<path fill="none" stroke="#ff0000" stroke-width="4" d="M1219.12,-391.52C1212.71,-388.92 1206.46,-386.08 1200.5,-383 1188.81,-376.96 1177.3,-368.81 1167,-360.46"/>
<polygon fill="#ff0000" stroke="#ff0000" stroke-width="4" points="1169.59,-358.06 1159.71,-354.23 1165.04,-363.39 1169.59,-358.06"/>
<text text-anchor="middle" x="1218.88" y="-373.5" font-family="Arial" font-size="10.00" fill="#ff0000">100.00%</text>
<text text-anchor="middle" x="1218.88" y="-361.5" font-family="Arial" font-size="10.00" fill="#ff0000">2×</text>
</g>
<!-- 26 -->
<g id="node22" class="node">
<title>26</title>
<polygon fill="#ff0000" stroke="#ff0000" points="3677.75,-350 3529.75,-350 3529.75,-294 3677.75,-294 3677.75,-350"/>
<text text-anchor="middle" x="3603.75" y="-336.5" font-family="Arial" font-size="10.00" fill="#ffffff">TPatriciaTrie::TNode::TNode()</text>
<text text-anchor="middle" x="3603.75" y="-324.5" font-family="Arial" font-size="10.00" fill="#ffffff">100.00%</text>
<text text-anchor="middle" x="3603.75" y="-312.5" font-family="Arial" font-size="10.00" fill="#ffffff">(100.00%)</text>
<text text-anchor="middle" x="3603.75" y="-300.5" font-family="Arial" font-size="10.00" fill="#ffffff">2×</text>
</g>
<!-- 31 -->
<g id="node23" class="node">
<title>31</title>
<polygon fill="#ff0000" stroke="#ff0000" points="3576,-252 3321.5,-252 3321.5,-196 3576,-196 3576,-252"/>
<text text-anchor="middle" x="3448.75" y="-238.5" font-family="Arial" font-size="10.00" fill="#ffffff">TPair&lt;TCaseInsensitiveString, unsigned long&gt;::TPair()</text>
<text text-anchor="middle" x="3448.75" y="-226.5" font-family="Arial" font-size="10.00" fill="#ffffff">100.00%</text>
<text text-anchor="middle" x="3448.75" y="-214.5" font-family="Arial" font-size="10.00" fill="#ffffff">(100.00%)</text>
<text text-anchor="middle" x="3448.75" y="-202.5" font-family="Arial" font-size="10.00" fill="#ffffff">2×</text>
</g>
<!-- 26&#45;&gt;31 -->
<g id="edge19" class="edge">
<title>26&#45;&gt;31</title>
<path fill="none" stroke="#ff0000" stroke-width="4" d="M3559.75,-293.75C3543.21,-283.51 3524.16,-271.7 3506.55,-260.8"/>
<polygon fill="#ff0000" stroke="#ff0000" stroke-width="4" points="3508.62,-257.97 3498.28,-255.68 3504.94,-263.92 3508.62,-257.97"/>
<text text-anchor="middle" x="3562.88" y="-275.5" font-family="Arial" font-size="10.00" fill="#ff0000">100.00%</text>
<text text-anchor="middle" x="3562.88" y="-263.5" font-family="Arial" font-size="10.00" fill="#ff0000">2×</text>
</g>
<!-- 31&#45;&gt;12 -->
<g id="edge22" class="edge">
<title>31&#45;&gt;12</title>
<path fill="none" stroke="#ff0000" stroke-width="4" d="M3321.2,-212.19C3257.93,-206.98 3180.34,-200.84 3110.75,-196 2735.7,-169.94 2292.39,-145.46 2075.98,-133.93"/>
<polygon fill="#ff0000" stroke="#ff0000" stroke-width="4" points="2076.38,-130.44 2066.21,-133.41 2076.01,-137.43 2076.38,-130.44"/>
<text text-anchor="middle" x="2970.88" y="-177.5" font-family="Arial" font-size="10.00" fill="#ff0000">100.00%</text>
<text text-anchor="middle" x="2970.88" y="-165.5" font-family="Arial" font-size="10.00" fill="#ff0000">2×</text>
</g>
<!-- 27 -->
<g id="node24" class="node">
<title>27</title>
<polygon fill="#ff0000" stroke="#ff0000" points="4059.75,-546 3983.75,-546 3983.75,-490 4059.75,-490 4059.75,-546"/>
<text text-anchor="middle" x="4021.75" y="-532.5" font-family="Arial" font-size="10.00" fill="#ffffff">TFile::check()</text>
<text text-anchor="middle" x="4021.75" y="-520.5" font-family="Arial" font-size="10.00" fill="#ffffff">100.00%</text>
<text text-anchor="middle" x="4021.75" y="-508.5" font-family="Arial" font-size="10.00" fill="#ffffff">(100.00%)</text>
<text text-anchor="middle" x="4021.75" y="-496.5" font-family="Arial" font-size="10.00" fill="#ffffff">2×</text>
</g>
<!-- 28 -->
<g id="node25" class="node">
<title>28</title>
<polygon fill="#ff0000" stroke="#ff0000" points="4150.38,-546 4069.12,-546 4069.12,-490 4150.38,-490 4150.38,-546"/>
<text text-anchor="middle" x="4109.75" y="-532.5" font-family="Arial" font-size="10.00" fill="#ffffff">TFile::GetFile()</text>
<text text-anchor="middle" x="4109.75" y="-520.5" font-family="Arial" font-size="10.00" fill="#ffffff">100.00%</text>
<text text-anchor="middle" x="4109.75" y="-508.5" font-family="Arial" font-size="10.00" fill="#ffffff">(100.00%)</text>
<text text-anchor="middle" x="4109.75" y="-496.5" font-family="Arial" font-size="10.00" fill="#ffffff">2×</text>
</g>
<!-- 29 -->
<g id="node26" class="node">
<title>29</title>
<polygon fill="#ff0000" stroke="#ff0000" points="1968.38,-252 1725.12,-252 1725.12,-196 1968.38,-196 1968.38,-252"/>
<text text-anchor="middle" x="1846.75" y="-238.5" font-family="Arial" font-size="10.00" fill="#ffffff">TFile::TFile(TCaseInsensitiveString, TFile::FileType)</text>
<text text-anchor="middle" x="1846.75" y="-226.5" font-family="Arial" font-size="10.00" fill="#ffffff">100.00%</text>
<text text-anchor="middle" x="1846.75" y="-214.5" font-family="Arial" font-size="10.00" fill="#ffffff">(100.00%)</text>
<text text-anchor="middle" x="1846.75" y="-202.5" font-family="Arial" font-size="10.00" fill="#ffffff">2×</text>
</g>
<!-- 29&#45;&gt;7 -->
<g id="edge20" class="edge">
<title>29&#45;&gt;7</title>
<path fill="none" stroke="#ff0000" stroke-width="4" d="M1814.68,-195.76C1778.23,-166.42 1715.73,-120.88 1653.75,-98 1517.2,-47.58 1348.29,-33.27 1241.5,-29.61"/>
<polygon fill="#ff0000" stroke="#ff0000" stroke-width="4" points="1241.71,-26.11 1231.61,-29.31 1241.5,-33.11 1241.71,-26.11"/>
<text text-anchor="middle" x="1775.88" y="-128.5" font-family="Arial" font-size="10.00" fill="#ff0000">100.00%</text>
<text text-anchor="middle" x="1775.88" y="-116.5" font-family="Arial" font-size="10.00" fill="#ff0000">2×</text>
</g>
<!-- 29&#45;&gt;12 -->
<g id="edge21" class="edge">
<title>29&#45;&gt;12</title>
<path fill="none" stroke="#ff0000" stroke-width="4" d="M1874.29,-195.75C1883.81,-186.32 1894.67,-175.58 1904.92,-165.43"/>
<polygon fill="#ff0000" stroke="#ff0000" stroke-width="4" points="1907.2,-168.1 1911.84,-158.58 1902.27,-163.13 1907.2,-168.1"/>
<text text-anchor="middle" x="1925.88" y="-177.5" font-family="Arial" font-size="10.00" fill="#ff0000">100.00%</text>
<text text-anchor="middle" x="1925.88" y="-165.5" font-family="Arial" font-size="10.00" fill="#ff0000">2×</text>
</g>
<!-- 30 -->
<g id="node27" class="node">
<title>30</title>
<polygon fill="#ff0000" stroke="#ff0000" points="4236.5,-546 4159,-546 4159,-490 4236.5,-490 4236.5,-546"/>
<text text-anchor="middle" x="4197.75" y="-532.5" font-family="Arial" font-size="10.00" fill="#ffffff">TFile::~TFile()</text>
<text text-anchor="middle" x="4197.75" y="-520.5" font-family="Arial" font-size="10.00" fill="#ffffff">100.00%</text>
<text text-anchor="middle" x="4197.75" y="-508.5" font-family="Arial" font-size="10.00" fill="#ffffff">(100.00%)</text>
<text text-anchor="middle" x="4197.75" y="-496.5" font-family="Arial" font-size="10.00" fill="#ffffff">2×</text>
</g>
<!-- 32 -->
<g id="node28" class="node">
<title>32</title>
<polygon fill="#ff0000" stroke="#ff0000" points="3496.5,-448 3245,-448 3245,-392 3496.5,-392 3496.5,-448"/>
<text text-anchor="middle" x="3370.75" y="-434.5" font-family="Arial" font-size="10.00" fill="#ffffff">TPatriciaTrie::ArrayToTree(TPatriciaTrie::TSaveData*)</text>
<text text-anchor="middle" x="3370.75" y="-422.5" font-family="Arial" font-size="10.00" fill="#ffffff">100.00%</text>
<text text-anchor="middle" x="3370.75" y="-410.5" font-family="Arial" font-size="10.00" fill="#ffffff">(100.00%)</text>
<text text-anchor="middle" x="3370.75" y="-398.5" font-family="Arial" font-size="10.00" fill="#ffffff">1×</text>
</g>
<!-- 32&#45;&gt;9 -->
<g id="edge23" class="edge">
<title>32&#45;&gt;9</title>
<path fill="none" stroke="#ff0000" stroke-width="4" d="M3496.53,-394.79C3516.04,-390.92 3535.95,-386.91 3554.75,-383 3598.86,-373.84 3646.87,-363.43 3690.16,-353.89"/>
<polygon fill="#ff0000" stroke="#ff0000" stroke-width="4" points="3690.65,-357.37 3699.66,-351.79 3689.14,-350.53 3690.65,-357.37"/>
<text text-anchor="middle" x="3678.88" y="-373.5" font-family="Arial" font-size="10.00" fill="#ff0000">100.00%</text>
<text text-anchor="middle" x="3678.88" y="-361.5" font-family="Arial" font-size="10.00" fill="#ff0000">2×</text>
</g>
<!-- 32&#45;&gt;17 -->
<g id="edge24" class="edge">
<title>32&#45;&gt;17</title>
<path fill="none" stroke="#ff0000" stroke-width="4" d="M3343.78,-391.75C3334.45,-382.32 3323.82,-371.58 3313.78,-361.43"/>
<polygon fill="#ff0000" stroke="#ff0000" stroke-width="4" points="3316.57,-359.27 3307.04,-354.62 3311.59,-364.19 3316.57,-359.27"/>
<text text-anchor="middle" x="3352.88" y="-373.5" font-family="Arial" font-size="10.00" fill="#ff0000">100.00%</text>
<text text-anchor="middle" x="3352.88" y="-361.5" font-family="Arial" font-size="10.00" fill="#ff0000">2×</text>
</g>
<!-- 32&#45;&gt;21 -->
<g id="edge25" class="edge">
<title>32&#45;&gt;21</title>
<path fill="none" stroke="#ff0000" stroke-width="4" d="M3244.58,-392.87C3242.96,-392.57 3241.35,-392.28 3239.75,-392 3159.48,-377.76 3071.03,-364.08 2993.13,-352.72"/>
<polygon fill="#ff0000" stroke="#ff0000" stroke-width="4" points="2994.08,-349.32 2983.69,-351.35 2993.08,-356.25 2994.08,-349.32"/>
<text text-anchor="middle" x="3195.88" y="-373.5" font-family="Arial" font-size="10.00" fill="#ff0000">100.00%</text>
<text text-anchor="middle" x="3195.88" y="-361.5" font-family="Arial" font-size="10.00" fill="#ff0000">2×</text>
</g>
<!-- 32&#45;&gt;26 -->
<g id="edge26" class="edge">
<title>32&#45;&gt;26</title>
<path fill="none" stroke="#ff0000" stroke-width="4" d="M3437.21,-391.62C3463.77,-380.67 3494.63,-367.96 3522.5,-356.47"/>
<polygon fill="#ff0000" stroke="#ff0000" stroke-width="4" points="3523.69,-359.77 3531.61,-352.72 3521.03,-353.3 3523.69,-359.77"/>
<text text-anchor="middle" x="3533.88" y="-373.5" font-family="Arial" font-size="10.00" fill="#ff0000">100.00%</text>
<text text-anchor="middle" x="3533.88" y="-361.5" font-family="Arial" font-size="10.00" fill="#ff0000">2×</text>
</g>
<!-- 33 -->
<g id="node29" class="node">
<title>33</title>
<polygon fill="#ff0000" stroke="#ff0000" points="3413,-546 3224.5,-546 3224.5,-490 3413,-490 3413,-546"/>
<text text-anchor="middle" x="3318.75" y="-532.5" font-family="Arial" font-size="10.00" fill="#ffffff">TPatriciaTrie::LoadFromFile(_IO_FILE*)</text>
<text text-anchor="middle" x="3318.75" y="-520.5" font-family="Arial" font-size="10.00" fill="#ffffff">100.00%</text>
<text text-anchor="middle" x="3318.75" y="-508.5" font-family="Arial" font-size="10.00" fill="#ffffff">(100.00%)</text>
<text text-anchor="middle" x="3318.75" y="-496.5" font-family="Arial" font-size="10.00" fill="#ffffff">1×</text>
</g>
<!-- 33&#45;&gt;24 -->
<g id="edge27" class="edge">
<title>33&#45;&gt;24</title>
<path fill="none" stroke="#ff0000" stroke-width="4" d="M3254,-489.62C3228.24,-478.72 3198.34,-466.08 3171.28,-454.63"/>
<polygon fill="#ff0000" stroke="#ff0000" stroke-width="4" points="3172.73,-451.45 3162.16,-450.78 3170,-457.89 3172.73,-451.45"/>
<text text-anchor="middle" x="3250.88" y="-471.5" font-family="Arial" font-size="10.00" fill="#ff0000">100.00%</text>
<text text-anchor="middle" x="3250.88" y="-459.5" font-family="Arial" font-size="10.00" fill="#ff0000">1×</text>
</g>
<!-- 33&#45;&gt;32 -->
<g id="edge28" class="edge">
<title>33&#45;&gt;32</title>
<path fill="none" stroke="#ff0000" stroke-width="4" d="M3333.51,-489.75C3338.12,-481.23 3343.32,-471.64 3348.33,-462.39"/>
<polygon fill="#ff0000" stroke="#ff0000" stroke-width="4" points="3351.38,-464.1 3353.07,-453.64 3345.23,-460.77 3351.38,-464.1"/>
<text text-anchor="middle" x="3369.88" y="-471.5" font-family="Arial" font-size="10.00" fill="#ff0000">100.00%</text>
<text text-anchor="middle" x="3369.88" y="-459.5" font-family="Arial" font-size="10.00" fill="#ff0000">1×</text>
</g>
<!-- 34 -->
<g id="node30" class="node">
<title>34</title>
<polygon fill="#ff0000" stroke="#ff0000" points="1740.12,-448 1495.38,-448 1495.38,-392 1740.12,-392 1740.12,-448"/>
<text text-anchor="middle" x="1617.75" y="-434.5" font-family="Arial" font-size="10.00" fill="#ffffff">TPatriciaTrie::Erase(TCaseInsensitiveString const&amp;)</text>
<text text-anchor="middle" x="1617.75" y="-422.5" font-family="Arial" font-size="10.00" fill="#ffffff">100.00%</text>
<text text-anchor="middle" x="1617.75" y="-410.5" font-family="Arial" font-size="10.00" fill="#ffffff">(100.00%)</text>
<text text-anchor="middle" x="1617.75" y="-398.5" font-family="Arial" font-size="10.00" fill="#ffffff">1×</text>
</g>
<!-- 34&#45;&gt;13 -->
<g id="edge29" class="edge">
<title>34&#45;&gt;13</title>
<path fill="none" stroke="#ff0000" stroke-width="4" d="M1617.71,-391.57C1617.15,-359.59 1614.51,-309.19 1603.75,-294 1593.99,-280.22 1580.71,-269.09 1566.16,-260.12"/>
<polygon fill="#ff0000" stroke="#ff0000" stroke-width="4" points="1568.23,-257.27 1557.79,-255.44 1564.81,-263.37 1568.23,-257.27"/>
<text text-anchor="middle" x="1634.88" y="-324.5" font-family="Arial" font-size="10.00" fill="#ff0000">100.00%</text>
<text text-anchor="middle" x="1634.88" y="-312.5" font-family="Arial" font-size="10.00" fill="#ff0000">1×</text>
</g>
<!-- 34&#45;&gt;15 -->
<g id="edge30" class="edge">
<title>34&#45;&gt;15</title>
<path fill="none" stroke="#ff0000" stroke-width="4" d="M1573.18,-391.75C1556.43,-381.51 1537.13,-369.7 1519.3,-358.8"/>
<polygon fill="#ff0000" stroke="#ff0000" stroke-width="4" points="1521.23,-355.88 1510.87,-353.65 1517.57,-361.85 1521.23,-355.88"/>
<text text-anchor="middle" x="1576.88" y="-373.5" font-family="Arial" font-size="10.00" fill="#ff0000">100.00%</text>
<text text-anchor="middle" x="1576.88" y="-361.5" font-family="Arial" font-size="10.00" fill="#ff0000">3×</text>
</g>
<!-- 34&#45;&gt;16 -->
<g id="edge31" class="edge">
<title>34&#45;&gt;16</title>
<path fill="none" stroke="#ff0000" stroke-width="4" d="M1495.18,-397.16C1482.56,-395.26 1469.91,-393.49 1457.75,-392 1406.32,-385.68 1391.64,-396.11 1341.5,-383 1316.97,-376.59 1313.76,-367.13 1289.75,-359 1285.53,-357.57 1281.23,-356.18 1276.87,-354.84"/>
<polygon fill="#ff0000" stroke="#ff0000" stroke-width="4" points="1278.26,-351.6 1267.68,-352.13 1276.28,-358.31 1278.26,-351.6"/>
<text text-anchor="middle" x="1359.88" y="-373.5" font-family="Arial" font-size="10.00" fill="#ff0000">100.00%</text>
<text text-anchor="middle" x="1359.88" y="-361.5" font-family="Arial" font-size="10.00" fill="#ff0000">1×</text>
</g>
<!-- 34&#45;&gt;21 -->
<g id="edge32" class="edge">
<title>34&#45;&gt;21</title>
<path fill="none" stroke="#ff0000" stroke-width="4" d="M1740.39,-410.96C1912.03,-399.44 2234.09,-376.78 2515.73,-351.1"/>
<polygon fill="#ff0000" stroke="#ff0000" stroke-width="4" points="2515.99,-354.59 2525.63,-350.19 2515.35,-347.62 2515.99,-354.59"/>
<text text-anchor="middle" x="2422.88" y="-373.5" font-family="Arial" font-size="10.00" fill="#ff0000">100.00%</text>
<text text-anchor="middle" x="2422.88" y="-361.5" font-family="Arial" font-size="10.00" fill="#ff0000">1×</text>
</g>
<!-- 39 -->
<g id="node31" class="node">
<title>39</title>
<polygon fill="#ff0000" stroke="#ff0000" points="2522.88,-350 1664.62,-350 1664.62,-294 2522.88,-294 2522.88,-350"/>
<text text-anchor="middle" x="2093.75" y="-336.5" font-family="Arial" font-size="10.00" fill="#ffffff">std::remove_reference&lt;TPair&lt;TCaseInsensitiveString, unsigned long&gt;&amp;&gt;::type&amp;&amp; std::move&lt;TPair&lt;TCaseInsensitiveString, unsigned long&gt;&amp;&gt;(TPair&lt;TCaseInsensitiveString, unsigned long&gt;&amp;)</text>
<text text-anchor="middle" x="2093.75" y="-324.5" font-family="Arial" font-size="10.00" fill="#ffffff">100.00%</text>
<text text-anchor="middle" x="2093.75" y="-312.5" font-family="Arial" font-size="10.00" fill="#ffffff">(100.00%)</text>
<text text-anchor="middle" x="2093.75" y="-300.5" font-family="Arial" font-size="10.00" fill="#ffffff">1×</text>
</g>
<!-- 34&#45;&gt;39 -->
<g id="edge33" class="edge">
<title>34&#45;&gt;39</title>
<path fill="none" stroke="#ff0000" stroke-width="4" d="M1740.33,-394.28C1801.92,-381.86 1877.11,-366.69 1942.28,-353.55"/>
<polygon fill="#ff0000" stroke="#ff0000" stroke-width="4" points="1942.7,-357.03 1951.81,-351.63 1941.32,-350.17 1942.7,-357.03"/>
<text text-anchor="middle" x="1930.88" y="-373.5" font-family="Arial" font-size="10.00" fill="#ff0000">100.00%</text>
<text text-anchor="middle" x="1930.88" y="-361.5" font-family="Arial" font-size="10.00" fill="#ff0000">1×</text>
</g>
<!-- 35 -->
<g id="node32" class="node">
<title>35</title>
<polygon fill="#ff0000" stroke="#ff0000" points="4384.25,-546 4245.25,-546 4245.25,-490 4384.25,-490 4384.25,-546"/>
<text text-anchor="middle" x="4314.75" y="-532.5" font-family="Arial" font-size="10.00" fill="#ffffff">TPatriciaTrie::TPatriciaTrie()</text>
<text text-anchor="middle" x="4314.75" y="-520.5" font-family="Arial" font-size="10.00" fill="#ffffff">100.00%</text>
<text text-anchor="middle" x="4314.75" y="-508.5" font-family="Arial" font-size="10.00" fill="#ffffff">(100.00%)</text>
<text text-anchor="middle" x="4314.75" y="-496.5" font-family="Arial" font-size="10.00" fill="#ffffff">1×</text>
</g>
<!-- 36 -->
<g id="node33" class="node">
<title>36</title>
<polygon fill="#ff0000" stroke="#ff0000" points="3164.25,-546 3019.25,-546 3019.25,-490 3164.25,-490 3164.25,-546"/>
<text text-anchor="middle" x="3091.75" y="-532.5" font-family="Arial" font-size="10.00" fill="#ffffff">TPatriciaTrie::~TPatriciaTrie()</text>
<text text-anchor="middle" x="3091.75" y="-520.5" font-family="Arial" font-size="10.00" fill="#ffffff">100.00%</text>
<text text-anchor="middle" x="3091.75" y="-508.5" font-family="Arial" font-size="10.00" fill="#ffffff">(100.00%)</text>
<text text-anchor="middle" x="3091.75" y="-496.5" font-family="Arial" font-size="10.00" fill="#ffffff">1×</text>
</g>
<!-- 36&#45;&gt;24 -->
<g id="edge34" class="edge">
<title>36&#45;&gt;24</title>
<path fill="none" stroke="#ff0000" stroke-width="4" d="M3091.75,-489.75C3091.75,-481.74 3091.75,-472.78 3091.75,-464.04"/>
<polygon fill="#ff0000" stroke="#ff0000" stroke-width="4" points="3095.25,-464.38 3091.75,-454.38 3088.25,-464.38 3095.25,-464.38"/>
<text text-anchor="middle" x="3110.88" y="-471.5" font-family="Arial" font-size="10.00" fill="#ff0000">100.00%</text>
<text text-anchor="middle" x="3110.88" y="-459.5" font-family="Arial" font-size="10.00" fill="#ff0000">1×</text>
</g>
<!-- 37 -->
<g id="node34" class="node">
<title>37</title>
<polygon fill="#ff0000" stroke="#ff0000" points="705.25,-252 500.25,-252 500.25,-196 705.25,-196 705.25,-252"/>
<text text-anchor="middle" x="602.75" y="-238.5" font-family="Arial" font-size="10.00" fill="#ffffff">TPatriciaTrie::SaveToFile(_IO_FILE*) const</text>
<text text-anchor="middle" x="602.75" y="-226.5" font-family="Arial" font-size="10.00" fill="#ffffff">100.00%</text>
<text text-anchor="middle" x="602.75" y="-214.5" font-family="Arial" font-size="10.00" fill="#ffffff">(100.00%)</text>
<text text-anchor="middle" x="602.75" y="-202.5" font-family="Arial" font-size="10.00" fill="#ffffff">1×</text>
</g>
<!-- 37&#45;&gt;5 -->
<g id="edge35" class="edge">
<title>37&#45;&gt;5</title>
<path fill="none" stroke="#ff0000" stroke-width="4" d="M693.45,-195.62C732.19,-183.92 777.6,-170.21 817.61,-158.14"/>
<polygon fill="#ff0000" stroke="#ff0000" stroke-width="4" points="818.59,-161.5 827.15,-155.26 816.56,-154.8 818.59,-161.5"/>
<text text-anchor="middle" x="817.88" y="-177.5" font-family="Arial" font-size="10.00" fill="#ff0000">100.00%</text>
<text text-anchor="middle" x="817.88" y="-165.5" font-family="Arial" font-size="10.00" fill="#ff0000">2×</text>
</g>
<!-- 37&#45;&gt;7 -->
<g id="edge36" class="edge">
<title>37&#45;&gt;7</title>
<path fill="none" stroke="#ff0000" stroke-width="4" d="M500.01,-195.82C438.69,-179.11 371.86,-159.82 367.5,-154 352.58,-134.08 350.71,-116.37 367.5,-98 411.46,-49.92 832.08,-35.07 1032.08,-30.71"/>
<polygon fill="#ff0000" stroke="#ff0000" stroke-width="4" points="1031.86,-34.22 1041.78,-30.51 1031.71,-27.22 1031.86,-34.22"/>
<text text-anchor="middle" x="386.88" y="-128.5" font-family="Arial" font-size="10.00" fill="#ff0000">100.00%</text>
<text text-anchor="middle" x="386.88" y="-116.5" font-family="Arial" font-size="10.00" fill="#ff0000">2×</text>
</g>
<!-- 38 -->
<g id="node35" class="node">
<title>38</title>
<polygon fill="#ff0000" stroke="#ff0000" points="795.25,-154 410.25,-154 410.25,-98 795.25,-98 795.25,-154"/>
<text text-anchor="middle" x="602.75" y="-140.5" font-family="Arial" font-size="10.00" fill="#ffffff">TPatriciaTrie::TreeToArray(TPatriciaTrie::TNode**, TPatriciaTrie::TNode*, int&amp;) const</text>
<text text-anchor="middle" x="602.75" y="-128.5" font-family="Arial" font-size="10.00" fill="#ffffff">100.00%</text>
<text text-anchor="middle" x="602.75" y="-116.5" font-family="Arial" font-size="10.00" fill="#ffffff">(100.00%)</text>
<text text-anchor="middle" x="602.75" y="-104.5" font-family="Arial" font-size="10.00" fill="#ffffff">2×</text>
</g>
<!-- 37&#45;&gt;38 -->
<g id="edge37" class="edge">
<title>37&#45;&gt;38</title>
<path fill="none" stroke="#ff0000" stroke-width="4" d="M602.75,-195.75C602.75,-187.74 602.75,-178.78 602.75,-170.04"/>
<polygon fill="#ff0000" stroke="#ff0000" stroke-width="4" points="606.25,-170.38 602.75,-160.38 599.25,-170.38 606.25,-170.38"/>
<text text-anchor="middle" x="621.88" y="-177.5" font-family="Arial" font-size="10.00" fill="#ff0000">100.00%</text>
<text text-anchor="middle" x="621.88" y="-165.5" font-family="Arial" font-size="10.00" fill="#ff0000">1×</text>
</g>
<!-- 38&#45;&gt;38 -->
<g id="edge38" class="edge">
<title>38&#45;&gt;38</title>
<path fill="none" stroke="#ff0000" stroke-width="4" d="M795.61,-130.75C795.78,-130.71 795.95,-130.66 796.12,-130.62"/>
<polygon fill="#ff0000" stroke="#ff0000" stroke-width="4" points="799.98,-137.09 795.94,-127.3 792.99,-137.48 799.98,-137.09"/>
<text text-anchor="middle" x="809.88" y="-122.5" font-family="Arial" font-size="10.00" fill="#ff0000">1×</text>
</g>
</g>
</svg>
